<ttFont>
<head>
    <!-- Most of this table will be recalculated by the compiler -->
    <tableVersion value="1.0"/>
    <fontRevision value="0.0"/>
    <checkSumAdjustment value="0x7ee40093"/>
    <magicNumber value="0x5f0f3cf5"/>
    <flags value="00000000 00000011"/>
    <unitsPerEm value="1024"/>
    <created value="Mon Feb 15 18:32:37 2021"/>
    <modified value="Mon Feb 15 18:33:08 2021"/>
    <xMin value="-2"/>
    <yMin value="0"/>
    <xMax value="1027"/>
    <yMax value="1024"/>
    <macStyle value="00000000 00000000"/>
    <lowestRecPPEM value="6"/>
    <fontDirectionHint value="2"/>
    <indexToLocFormat value="0"/>
    <glyphDataFormat value="0"/>
  </head>
    <TTGlyph name="glyph00002" xMin="352" yMin="693" xMax="672" yMax="855">
      <contour>
        <pt x="591" y="693" on="1"/>
        <pt x="625" y="693" on="0"/>
        <pt x="672" y="741" on="0"/>
        <pt x="672" y="774" on="1"/>
        <pt x="672" y="807" on="0"/>
        <pt x="625" y="855" on="0"/>
        <pt x="591" y="855" on="1"/>
        <pt x="433" y="855" on="1"/>
        <pt x="399" y="855" on="0"/>
        <pt x="352" y="807" on="0"/>
        <pt x="352" y="774" on="1"/>
        <pt x="352" y="741" on="0"/>
        <pt x="399" y="693" on="0"/>
        <pt x="433" y="693" on="1"/>
      </contour>
    </TTGlyph>
    <TTGlyph name="glyph00003" xMin="32" yMin="434" xMax="174" yMax="512">
      <contour>
        <pt x="172" y="459" on="1"/>
        <pt x="174" y="448" on="0"/>
        <pt x="161" y="434" on="0"/>
        <pt x="150" y="434" on="1"/>
        <pt x="150" y="434" on="0"/>
        <pt x="114" y="435" on="0"/>
        <pt x="68" y="440" on="0"/>
        <pt x="32" y="452" on="0"/>
        <pt x="32" y="464" on="1"/>
        <pt x="32" y="484" on="0"/>
        <pt x="50" y="505" on="0"/>
        <pt x="64" y="508" on="1"/>
        <pt x="64" y="508" on="0"/>
        <pt x="97" y="512" on="0"/>
        <pt x="140" y="512" on="0"/>
        <pt x="172" y="500" on="0"/>
        <pt x="172" y="483" on="1"/>
      </contour>
    </TTGlyph>
    <TTGlyph name="glyph00004" xMin="32" yMin="434" xMax="174" yMax="512">
      <contour>
        <pt x="112" y="496" on="1"/>
        <pt x="96" y="496" on="0"/>
        <pt x="70" y="493" on="0"/>
        <pt x="68" y="493" on="1"/>
        <pt x="61" y="491" on="0"/>
        <pt x="49" y="480" on="0"/>
        <pt x="48" y="465" on="1"/>
        <pt x="53" y="460" on="0"/>
        <pt x="104" y="450" on="0"/>
        <pt x="147" y="450" on="1"/>
        <pt x="150" y="450" on="1"/>
        <pt x="154" y="450" on="0"/>
        <pt x="156" y="452" on="1"/>
        <pt x="157" y="453" on="0"/>
        <pt x="156" y="456" on="1"/>
        <pt x="156" y="457" on="0"/>
        <pt x="156" y="459" on="1"/>
        <pt x="156" y="483" on="1"/>
        <pt x="156" y="490" on="0"/>
        <pt x="127" y="496" on="0"/>
      </contour>
      <contour>
        <pt x="112" y="512" on="1"/>
        <pt x="134" y="512" on="0"/>
        <pt x="172" y="501" on="0"/>
        <pt x="172" y="483" on="1"/>
        <pt x="172" y="459" on="1"/>
        <pt x="174" y="449" on="0"/>
        <pt x="161" y="434" on="0"/>
        <pt x="150" y="434" on="1"/>
        <pt x="147" y="434" on="1"/>
        <pt x="140" y="434" on="0"/>
        <pt x="104" y="436" on="0"/>
        <pt x="62" y="441" on="0"/>
        <pt x="32" y="453" on="0"/>
        <pt x="32" y="464" on="1"/>
        <pt x="32" y="484" on="0"/>
        <pt x="50" y="505" on="0"/>
        <pt x="64" y="508" on="1"/>
        <pt x="64" y="508" on="0"/>
        <pt x="94" y="512" on="0"/>
      </contour>
    </TTGlyph>
    <TTGlyph name="glyph00005" xMin="851" yMin="434" xMax="992" yMax="512">
      <contour>
        <pt x="852" y="459" on="1"/>
        <pt x="851" y="448" on="0"/>
        <pt x="864" y="434" on="0"/>
        <pt x="875" y="434" on="1"/>
        <pt x="875" y="434" on="0"/>
        <pt x="910" y="435" on="0"/>
        <pt x="957" y="440" on="0"/>
        <pt x="992" y="452" on="0"/>
        <pt x="992" y="464" on="1"/>
        <pt x="992" y="484" on="0"/>
        <pt x="974" y="504" on="0"/>
        <pt x="960" y="508" on="1"/>
        <pt x="960" y="508" on="0"/>
        <pt x="928" y="512" on="0"/>
        <pt x="885" y="512" on="0"/>
        <pt x="852" y="500" on="0"/>
        <pt x="852" y="483" on="1"/>
      </contour>
    </TTGlyph>
    <TTGlyph name="glyph00006" xMin="851" yMin="434" xMax="992" yMax="512">
      <contour>
        <pt x="912" y="512" on="1"/>
        <pt x="912" y="496" on="1"/>
        <pt x="897" y="496" on="0"/>
        <pt x="868" y="490" on="0"/>
        <pt x="868" y="483" on="1"/>
        <pt x="869" y="459" on="1"/>
        <pt x="869" y="457" on="0"/>
        <pt x="868" y="456" on="1"/>
        <pt x="868" y="453" on="0"/>
        <pt x="869" y="452" on="1"/>
        <pt x="871" y="450" on="0"/>
        <pt x="875" y="450" on="1"/>
        <pt x="877" y="450" on="1"/>
        <pt x="921" y="450" on="0"/>
        <pt x="971" y="460" on="0"/>
        <pt x="976" y="465" on="1"/>
        <pt x="976" y="479" on="0"/>
        <pt x="964" y="491" on="0"/>
        <pt x="957" y="492" on="1"/>
        <pt x="954" y="493" on="0"/>
        <pt x="928" y="496" on="0"/>
        <pt x="912" y="496" on="1"/>
      </contour>
      <contour>
        <pt x="912" y="512" on="1"/>
        <pt x="931" y="512" on="0"/>
        <pt x="960" y="508" on="0"/>
        <pt x="960" y="508" on="1"/>
        <pt x="974" y="504" on="0"/>
        <pt x="992" y="484" on="0"/>
        <pt x="992" y="464" on="1"/>
        <pt x="992" y="453" on="0"/>
        <pt x="962" y="441" on="0"/>
        <pt x="920" y="435" on="0"/>
        <pt x="884" y="434" on="0"/>
        <pt x="877" y="434" on="1"/>
        <pt x="874" y="434" on="1"/>
        <pt x="863" y="434" on="0"/>
        <pt x="851" y="448" on="0"/>
        <pt x="852" y="459" on="1"/>
        <pt x="852" y="483" on="1"/>
        <pt x="852" y="501" on="0"/>
        <pt x="890" y="512" on="0"/>
      </contour>
    </TTGlyph>
    <TTGlyph name="glyph00007" xMin="109" yMin="31" xMax="235" yMax="177">
      <contour>
        <pt x="193" y="31" on="1"/>
        <pt x="210" y="31" on="0"/>
        <pt x="235" y="55" on="0"/>
        <pt x="235" y="73" on="1"/>
        <pt x="235" y="135" on="1"/>
        <pt x="235" y="152" on="0"/>
        <pt x="211" y="177" on="0"/>
        <pt x="193" y="177" on="1"/>
        <pt x="151" y="177" on="1"/>
        <pt x="134" y="177" on="0"/>
        <pt x="109" y="152" on="0"/>
        <pt x="109" y="135" on="1"/>
        <pt x="109" y="73" on="1"/>
        <pt x="109" y="55" on="0"/>
        <pt x="134" y="31" on="0"/>
        <pt x="151" y="31" on="1"/>
      </contour>
    </TTGlyph>
    <TTGlyph name="glyph00008" xMin="788" yMin="31" xMax="916" yMax="177">
      <contour>
        <pt x="874" y="31" on="1"/>
        <pt x="891" y="31" on="0"/>
        <pt x="916" y="55" on="0"/>
        <pt x="916" y="73" on="1"/>
        <pt x="916" y="135" on="1"/>
        <pt x="916" y="152" on="0"/>
        <pt x="891" y="177" on="0"/>
        <pt x="874" y="177" on="1"/>
        <pt x="830" y="177" on="1"/>
        <pt x="813" y="177" on="0"/>
        <pt x="788" y="152" on="0"/>
        <pt x="788" y="135" on="1"/>
        <pt x="788" y="73" on="1"/>
        <pt x="788" y="55" on="0"/>
        <pt x="813" y="31" on="0"/>
        <pt x="830" y="31" on="1"/>
      </contour>
    </TTGlyph>
    <TTGlyph name="glyph00009" xMin="352" yMin="693" xMax="672" yMax="856">
      <contour>
        <pt x="591" y="838" on="1"/>
        <pt x="433" y="838" on="1"/>
        <pt x="407" y="838" on="0"/>
        <pt x="370" y="801" on="0"/>
        <pt x="370" y="775" on="1"/>
        <pt x="370" y="774" on="1"/>
        <pt x="370" y="748" on="0"/>
        <pt x="407" y="711" on="0"/>
        <pt x="433" y="711" on="1"/>
        <pt x="591" y="711" on="1"/>
        <pt x="617" y="711" on="0"/>
        <pt x="654" y="748" on="0"/>
        <pt x="654" y="774" on="1"/>
        <pt x="654" y="775" on="1"/>
        <pt x="654" y="801" on="0"/>
        <pt x="617" y="838" on="0"/>
      </contour>
      <contour>
        <pt x="591" y="856" on="1"/>
        <pt x="625" y="856" on="0"/>
        <pt x="672" y="808" on="0"/>
        <pt x="672" y="775" on="1"/>
        <pt x="672" y="774" on="1"/>
        <pt x="672" y="741" on="0"/>
        <pt x="625" y="693" on="0"/>
        <pt x="591" y="693" on="1"/>
        <pt x="433" y="693" on="1"/>
        <pt x="399" y="693" on="0"/>
        <pt x="352" y="741" on="0"/>
        <pt x="352" y="774" on="1"/>
        <pt x="352" y="775" on="1"/>
        <pt x="352" y="808" on="0"/>
        <pt x="399" y="856" on="0"/>
        <pt x="433" y="856" on="1"/>
      </contour>
    </TTGlyph>
    <TTGlyph name="glyph00010" xMin="96" yMin="96" xMax="928" yMax="768">
      <contour>
        <pt x="884" y="435" on="1"/>
        <pt x="911" y="422" on="0"/>
        <pt x="928" y="367" on="0"/>
        <pt x="928" y="321" on="1"/>
        <pt x="928" y="187" on="1"/>
        <pt x="928" y="160" on="0"/>
        <pt x="899" y="119" on="0"/>
        <pt x="854" y="96" on="0"/>
        <pt x="830" y="96" on="1"/>
        <pt x="192" y="96" on="1"/>
        <pt x="157" y="96" on="0"/>
        <pt x="96" y="146" on="0"/>
        <pt x="96" y="187" on="1"/>
        <pt x="96" y="321" on="1"/>
        <pt x="96" y="368" on="0"/>
        <pt x="113" y="423" on="0"/>
        <pt x="139" y="436" on="1"/>
        <pt x="192" y="672" on="1"/>
        <pt x="201" y="700" on="0"/>
        <pt x="266" y="743" on="0"/>
        <pt x="400" y="768" on="0"/>
        <pt x="512" y="768" on="1"/>
        <pt x="624" y="768" on="0"/>
        <pt x="758" y="742" on="0"/>
        <pt x="824" y="699" on="0"/>
        <pt x="832" y="674" on="1"/>
      </contour>
    </TTGlyph>
    <TTGlyph name="glyph00011" xMin="96" yMin="96" xMax="928" yMax="768">
      <contour>
        <pt x="512" y="744" on="1"/>
        <pt x="244" y="744" on="0"/>
        <pt x="215" y="665" on="1"/>
        <pt x="163" y="430" on="1"/>
        <pt x="160" y="419" on="1"/>
        <pt x="150" y="414" on="1"/>
        <pt x="135" y="407" on="0"/>
        <pt x="120" y="371" on="0"/>
        <pt x="120" y="321" on="1"/>
        <pt x="120" y="187" on="1"/>
        <pt x="120" y="169" on="0"/>
        <pt x="135" y="146" on="0"/>
        <pt x="142" y="139" on="1"/>
        <pt x="164" y="120" on="0"/>
        <pt x="192" y="120" on="1"/>
        <pt x="830" y="120" on="1"/>
        <pt x="857" y="120" on="0"/>
        <pt x="904" y="157" on="0"/>
        <pt x="904" y="187" on="1"/>
        <pt x="904" y="321" on="1"/>
        <pt x="904" y="370" on="0"/>
        <pt x="889" y="406" on="0"/>
        <pt x="874" y="413" on="1"/>
        <pt x="863" y="418" on="1"/>
        <pt x="861" y="430" on="1"/>
        <pt x="808" y="668" on="1"/>
        <pt x="801" y="688" on="0"/>
        <pt x="752" y="716" on="0"/>
        <pt x="682" y="733" on="0"/>
        <pt x="606" y="741" on="0"/>
        <pt x="536" y="744" on="0"/>
      </contour>
      <contour>
        <pt x="512" y="768" on="1"/>
        <pt x="624" y="768" on="0"/>
        <pt x="758" y="742" on="0"/>
        <pt x="823" y="699" on="0"/>
        <pt x="832" y="674" on="1"/>
        <pt x="884" y="435" on="1"/>
        <pt x="911" y="422" on="0"/>
        <pt x="928" y="367" on="0"/>
        <pt x="928" y="321" on="1"/>
        <pt x="928" y="187" on="1"/>
        <pt x="928" y="160" on="0"/>
        <pt x="899" y="119" on="0"/>
        <pt x="854" y="96" on="0"/>
        <pt x="830" y="96" on="1"/>
        <pt x="192" y="96" on="1"/>
        <pt x="157" y="96" on="0"/>
        <pt x="96" y="146" on="0"/>
        <pt x="96" y="187" on="1"/>
        <pt x="96" y="321" on="1"/>
        <pt x="96" y="368" on="0"/>
        <pt x="113" y="423" on="0"/>
        <pt x="139" y="436" on="1"/>
        <pt x="192" y="672" on="1"/>
        <pt x="201" y="700" on="0"/>
        <pt x="266" y="743" on="0"/>
        <pt x="400" y="768" on="0"/>
      </contour>
    </TTGlyph>
    <TTGlyph name="glyph00012" xMin="328" yMin="236" xMax="692" yMax="343">
      <contour>
        <pt x="512" y="236" on="1"/>
        <pt x="573" y="236" on="0"/>
        <pt x="645" y="245" on="0"/>
        <pt x="681" y="259" on="0"/>
        <pt x="692" y="272" on="0"/>
        <pt x="692" y="277" on="1"/>
        <pt x="692" y="296" on="1"/>
        <pt x="692" y="315" on="0"/>
        <pt x="662" y="343" on="0"/>
        <pt x="640" y="343" on="1"/>
        <pt x="380" y="343" on="1"/>
        <pt x="358" y="343" on="0"/>
        <pt x="328" y="315" on="0"/>
        <pt x="328" y="296" on="1"/>
        <pt x="328" y="277" on="1"/>
        <pt x="328" y="272" on="0"/>
        <pt x="339" y="259" on="0"/>
        <pt x="376" y="245" on="0"/>
        <pt x="450" y="236" on="0"/>
      </contour>
    </TTGlyph>
    <TTGlyph name="glyph00013" xMin="320" yMin="228" xMax="700" yMax="351">
      <contour>
        <pt x="640" y="335" on="1"/>
        <pt x="380" y="335" on="1"/>
        <pt x="362" y="335" on="0"/>
        <pt x="336" y="312" on="0"/>
        <pt x="336" y="296" on="1"/>
        <pt x="336" y="277" on="1"/>
        <pt x="336" y="266" on="0"/>
        <pt x="388" y="251" on="0"/>
        <pt x="468" y="244" on="0"/>
        <pt x="512" y="244" on="1"/>
        <pt x="555" y="244" on="0"/>
        <pt x="634" y="251" on="0"/>
        <pt x="684" y="266" on="0"/>
        <pt x="684" y="277" on="1"/>
        <pt x="684" y="296" on="1"/>
        <pt x="684" y="312" on="0"/>
        <pt x="658" y="335" on="0"/>
        <pt x="640" y="335" on="1"/>
      </contour>
      <contour>
        <pt x="640" y="351" on="1"/>
        <pt x="665" y="351" on="0"/>
        <pt x="700" y="319" on="0"/>
        <pt x="700" y="296" on="1"/>
        <pt x="700" y="277" on="1"/>
        <pt x="700" y="258" on="0"/>
        <pt x="656" y="240" on="0"/>
        <pt x="633" y="236" on="1"/>
        <pt x="584" y="228" on="0"/>
        <pt x="512" y="228" on="1"/>
        <pt x="440" y="228" on="0"/>
        <pt x="389" y="236" on="1"/>
        <pt x="365" y="241" on="0"/>
        <pt x="320" y="258" on="0"/>
        <pt x="320" y="277" on="1"/>
        <pt x="320" y="296" on="1"/>
        <pt x="320" y="319" on="0"/>
        <pt x="355" y="351" on="0"/>
        <pt x="380" y="351" on="1"/>
      </contour>
    </TTGlyph>
    <TTGlyph name="glyph00014" xMin="360" yMin="296" xMax="664" yMax="312">
      <contour>
        <pt x="368" y="312" on="1"/>
        <pt x="360" y="312" on="0"/>
        <pt x="360" y="304" on="1"/>
        <pt x="360" y="296" on="0"/>
        <pt x="368" y="296" on="1"/>
        <pt x="656" y="296" on="1"/>
        <pt x="664" y="296" on="0"/>
        <pt x="664" y="304" on="1"/>
        <pt x="664" y="312" on="0"/>
        <pt x="656" y="312" on="1"/>
      </contour>
    </TTGlyph>
    <TTGlyph name="glyph00015" xMin="384" yMin="264" xMax="648" yMax="280">
      <contour>
        <pt x="392" y="280" on="1"/>
        <pt x="384" y="280" on="0"/>
        <pt x="384" y="272" on="1"/>
        <pt x="384" y="264" on="0"/>
        <pt x="392" y="264" on="1"/>
        <pt x="640" y="264" on="1"/>
        <pt x="648" y="264" on="0"/>
        <pt x="648" y="272" on="1"/>
        <pt x="648" y="280" on="0"/>
        <pt x="640" y="280" on="1"/>
      </contour>
    </TTGlyph>
    <TTGlyph name="glyph00016" xMin="424" yMin="774" xMax="600" yMax="824">
      <component glyphName="glyph00017" x="0" y="0" flags="0x4"/>
      <component glyphName="glyph00017" x="50" y="0" flags="0x4"/>
      <component glyphName="glyph00017" x="101" y="0" flags="0x4"/>
      <component glyphName="glyph00017" x="151" y="0" flags="0x4"/>
      <component glyphName="glyph00017" x="25" y="-25" flags="0x4"/>
      <component glyphName="glyph00017" x="75" y="-25" flags="0x4"/>
      <component glyphName="glyph00017" x="126" y="-25" flags="0x4"/>
    </TTGlyph>
    <TTGlyph name="glyph00017" xMin="424" yMin="799" xMax="449" yMax="824">
      <contour>
        <pt x="424" y="824" on="1"/>
        <pt x="424" y="799" on="1"/>
        <pt x="449" y="799" on="1"/>
        <pt x="449" y="824" on="1"/>
      </contour>
    </TTGlyph>
    <TTGlyph name="glyph00018" xMin="165" yMin="278" xMax="295" yMax="408">
      <contour>
        <pt x="295" y="343" on="1"/>
        <pt x="295" y="370" on="0"/>
        <pt x="257" y="408" on="0"/>
        <pt x="230" y="408" on="1"/>
        <pt x="203" y="408" on="0"/>
        <pt x="165" y="370" on="0"/>
        <pt x="165" y="343" on="1"/>
        <pt x="165" y="316" on="0"/>
        <pt x="203" y="278" on="0"/>
        <pt x="230" y="278" on="1"/>
        <pt x="257" y="278" on="0"/>
        <pt x="295" y="316" on="0"/>
      </contour>
    </TTGlyph>
    <TTGlyph name="glyph00019" xMin="149" yMin="262" xMax="311" yMax="424">
      <contour>
        <pt x="311" y="343" on="1"/>
        <pt x="311" y="377" on="0"/>
        <pt x="287" y="400" on="1"/>
        <pt x="264" y="424" on="0"/>
        <pt x="230" y="424" on="1"/>
        <pt x="196" y="424" on="0"/>
        <pt x="173" y="400" on="1"/>
        <pt x="149" y="377" on="0"/>
        <pt x="149" y="343" on="1"/>
        <pt x="149" y="310" on="0"/>
        <pt x="173" y="286" on="1"/>
        <pt x="196" y="262" on="0"/>
        <pt x="230" y="262" on="1"/>
        <pt x="264" y="262" on="0"/>
        <pt x="287" y="286" on="1"/>
        <pt x="311" y="310" on="0"/>
      </contour>
      <contour>
        <pt x="295" y="343" on="1"/>
        <pt x="295" y="316" on="0"/>
        <pt x="276" y="297" on="1"/>
        <pt x="257" y="278" on="0"/>
        <pt x="230" y="278" on="1"/>
        <pt x="203" y="278" on="0"/>
        <pt x="184" y="297" on="1"/>
        <pt x="165" y="316" on="0"/>
        <pt x="165" y="343" on="1"/>
        <pt x="165" y="370" on="0"/>
        <pt x="184" y="389" on="1"/>
        <pt x="203" y="408" on="0"/>
        <pt x="230" y="408" on="1"/>
        <pt x="257" y="408" on="0"/>
        <pt x="276" y="389" on="1"/>
        <pt x="295" y="370" on="0"/>
      </contour>
    </TTGlyph>
    <TTGlyph name="glyph00020" xMin="725" yMin="278" xMax="855" yMax="408">
      <contour>
        <pt x="855" y="343" on="1"/>
        <pt x="855" y="370" on="0"/>
        <pt x="817" y="408" on="0"/>
        <pt x="790" y="408" on="1"/>
        <pt x="763" y="408" on="0"/>
        <pt x="725" y="370" on="0"/>
        <pt x="725" y="343" on="1"/>
        <pt x="725" y="316" on="0"/>
        <pt x="763" y="278" on="0"/>
        <pt x="790" y="278" on="1"/>
        <pt x="817" y="278" on="0"/>
        <pt x="855" y="316" on="0"/>
      </contour>
    </TTGlyph>
    <TTGlyph name="glyph00021" xMin="709" yMin="262" xMax="871" yMax="424">
      <contour>
        <pt x="871" y="343" on="1"/>
        <pt x="871" y="377" on="0"/>
        <pt x="847" y="400" on="1"/>
        <pt x="824" y="424" on="0"/>
        <pt x="790" y="424" on="1"/>
        <pt x="756" y="424" on="0"/>
        <pt x="733" y="400" on="1"/>
        <pt x="709" y="377" on="0"/>
        <pt x="709" y="343" on="1"/>
        <pt x="709" y="310" on="0"/>
        <pt x="733" y="286" on="1"/>
        <pt x="756" y="262" on="0"/>
        <pt x="790" y="262" on="1"/>
        <pt x="824" y="262" on="0"/>
        <pt x="847" y="286" on="1"/>
        <pt x="871" y="310" on="0"/>
      </contour>
      <contour>
        <pt x="855" y="343" on="1"/>
        <pt x="855" y="316" on="0"/>
        <pt x="836" y="297" on="1"/>
        <pt x="817" y="278" on="0"/>
        <pt x="790" y="278" on="1"/>
        <pt x="763" y="278" on="0"/>
        <pt x="744" y="297" on="1"/>
        <pt x="725" y="316" on="0"/>
        <pt x="725" y="343" on="1"/>
        <pt x="725" y="370" on="0"/>
        <pt x="744" y="389" on="1"/>
        <pt x="763" y="408" on="0"/>
        <pt x="790" y="408" on="1"/>
        <pt x="817" y="408" on="0"/>
        <pt x="836" y="389" on="1"/>
        <pt x="855" y="370" on="0"/>
      </contour>
    </TTGlyph>
    <TTGlyph name="glyph00022" xMin="109" yMin="31" xMax="235" yMax="177">
      <contour>
        <pt x="193" y="161" on="1"/>
        <pt x="151" y="161" on="1"/>
        <pt x="141" y="161" on="0"/>
        <pt x="125" y="145" on="0"/>
        <pt x="125" y="135" on="1"/>
        <pt x="125" y="73" on="1"/>
        <pt x="125" y="62" on="0"/>
        <pt x="141" y="47" on="0"/>
        <pt x="151" y="47" on="1"/>
        <pt x="193" y="47" on="1"/>
        <pt x="204" y="47" on="0"/>
        <pt x="219" y="62" on="0"/>
        <pt x="219" y="73" on="1"/>
        <pt x="219" y="135" on="1"/>
        <pt x="219" y="145" on="0"/>
        <pt x="204" y="161" on="0"/>
      </contour>
      <contour>
        <pt x="193" y="177" on="1"/>
        <pt x="210" y="177" on="0"/>
        <pt x="235" y="152" on="0"/>
        <pt x="235" y="135" on="1"/>
        <pt x="235" y="73" on="1"/>
        <pt x="235" y="55" on="0"/>
        <pt x="211" y="31" on="0"/>
        <pt x="193" y="31" on="1"/>
        <pt x="151" y="31" on="1"/>
        <pt x="134" y="31" on="0"/>
        <pt x="109" y="55" on="0"/>
        <pt x="109" y="73" on="1"/>
        <pt x="109" y="135" on="1"/>
        <pt x="109" y="152" on="0"/>
        <pt x="134" y="177" on="0"/>
        <pt x="151" y="177" on="1"/>
      </contour>
    </TTGlyph>
    <TTGlyph name="glyph00023" xMin="788" yMin="31" xMax="916" yMax="177">
      <contour>
        <pt x="874" y="161" on="1"/>
        <pt x="830" y="161" on="1"/>
        <pt x="819" y="161" on="0"/>
        <pt x="804" y="145" on="0"/>
        <pt x="804" y="135" on="1"/>
        <pt x="804" y="73" on="1"/>
        <pt x="804" y="62" on="0"/>
        <pt x="819" y="47" on="0"/>
        <pt x="830" y="47" on="1"/>
        <pt x="874" y="47" on="1"/>
        <pt x="885" y="47" on="0"/>
        <pt x="900" y="62" on="0"/>
        <pt x="900" y="73" on="1"/>
        <pt x="900" y="135" on="1"/>
        <pt x="900" y="145" on="0"/>
        <pt x="885" y="161" on="0"/>
      </contour>
      <contour>
        <pt x="874" y="177" on="1"/>
        <pt x="891" y="177" on="0"/>
        <pt x="916" y="152" on="0"/>
        <pt x="916" y="135" on="1"/>
        <pt x="916" y="73" on="1"/>
        <pt x="916" y="55" on="0"/>
        <pt x="891" y="31" on="0"/>
        <pt x="874" y="31" on="1"/>
        <pt x="830" y="31" on="1"/>
        <pt x="813" y="31" on="0"/>
        <pt x="788" y="55" on="0"/>
        <pt x="788" y="73" on="1"/>
        <pt x="788" y="135" on="1"/>
        <pt x="788" y="152" on="0"/>
        <pt x="813" y="177" on="0"/>
        <pt x="830" y="177" on="1"/>
      </contour>
    </TTGlyph>
    <TTGlyph name="glyph00024" xMin="232" yMin="463" xMax="798" yMax="704">
      <contour>
        <pt x="771" y="464" on="1"/>
        <pt x="743" y="467" on="0"/>
        <pt x="620" y="473" on="0"/>
        <pt x="515" y="473" on="1"/>
        <pt x="410" y="473" on="0"/>
        <pt x="287" y="467" on="0"/>
        <pt x="259" y="464" on="1"/>
        <pt x="247" y="463" on="0"/>
        <pt x="232" y="479" on="0"/>
        <pt x="234" y="490" on="1"/>
        <pt x="268" y="642" on="1"/>
        <pt x="271" y="653" on="0"/>
        <pt x="318" y="682" on="0"/>
        <pt x="424" y="704" on="0"/>
        <pt x="515" y="704" on="1"/>
        <pt x="607" y="704" on="0"/>
        <pt x="712" y="684" on="0"/>
        <pt x="759" y="655" on="0"/>
        <pt x="762" y="642" on="1"/>
        <pt x="796" y="490" on="1"/>
        <pt x="798" y="480" on="0"/>
        <pt x="783" y="463" on="0"/>
      </contour>
    </TTGlyph>
    <TTGlyph name="glyph00025" xMin="232" yMin="464" xMax="798" yMax="704">
      <contour>
        <pt x="515" y="688" on="1"/>
        <pt x="425" y="688" on="0"/>
        <pt x="326" y="667" on="0"/>
        <pt x="285" y="643" on="0"/>
        <pt x="284" y="638" on="1"/>
        <pt x="250" y="487" on="1"/>
        <pt x="250" y="485" on="0"/>
        <pt x="251" y="483" on="1"/>
        <pt x="253" y="481" on="0"/>
        <pt x="256" y="481" on="1"/>
        <pt x="257" y="481" on="1"/>
        <pt x="288" y="483" on="0"/>
        <pt x="412" y="489" on="0"/>
        <pt x="515" y="489" on="1"/>
        <pt x="618" y="489" on="0"/>
        <pt x="742" y="483" on="0"/>
        <pt x="773" y="481" on="1"/>
        <pt x="774" y="481" on="1"/>
        <pt x="777" y="481" on="0"/>
        <pt x="779" y="483" on="1"/>
        <pt x="780" y="485" on="0"/>
        <pt x="780" y="487" on="1"/>
        <pt x="746" y="638" on="1"/>
        <pt x="744" y="645" on="0"/>
        <pt x="704" y="669" on="0"/>
        <pt x="605" y="688" on="0"/>
      </contour>
      <contour>
        <pt x="515" y="704" on="1"/>
        <pt x="607" y="704" on="0"/>
        <pt x="712" y="684" on="0"/>
        <pt x="759" y="655" on="0"/>
        <pt x="762" y="642" on="1"/>
        <pt x="795" y="490" on="1"/>
        <pt x="798" y="480" on="0"/>
        <pt x="784" y="464" on="0"/>
        <pt x="774" y="464" on="1"/>
        <pt x="772" y="464" on="0"/>
        <pt x="771" y="464" on="1"/>
        <pt x="743" y="467" on="0"/>
        <pt x="620" y="473" on="0"/>
        <pt x="515" y="473" on="1"/>
        <pt x="410" y="473" on="0"/>
        <pt x="287" y="467" on="0"/>
        <pt x="259" y="464" on="1"/>
        <pt x="258" y="464" on="0"/>
        <pt x="256" y="464" on="1"/>
        <pt x="246" y="464" on="0"/>
        <pt x="232" y="480" on="0"/>
        <pt x="234" y="490" on="1"/>
        <pt x="268" y="642" on="1"/>
        <pt x="271" y="653" on="0"/>
        <pt x="318" y="682" on="0"/>
        <pt x="424" y="704" on="0"/>
      </contour>
    </TTGlyph>
    <TTGlyph name="glyph00026" xMin="76" yMin="81" xMax="948" yMax="193">
      <contour>
        <pt x="911" y="101" on="1"/>
        <pt x="927" y="102" on="0"/>
        <pt x="948" y="126" on="0"/>
        <pt x="947" y="141" on="1"/>
        <pt x="947" y="146" on="0"/>
        <pt x="947" y="151" on="0"/>
        <pt x="946" y="156" on="1"/>
        <pt x="945" y="171" on="0"/>
        <pt x="922" y="192" on="0"/>
        <pt x="906" y="192" on="1"/>
        <pt x="512" y="172" on="0"/>
        <pt x="118" y="192" on="1"/>
        <pt x="102" y="193" on="0"/>
        <pt x="78" y="171" on="0"/>
        <pt x="77" y="156" on="1"/>
        <pt x="77" y="151" on="0"/>
        <pt x="77" y="146" on="0"/>
        <pt x="77" y="141" on="1"/>
        <pt x="76" y="126" on="0"/>
        <pt x="97" y="102" on="0"/>
        <pt x="113" y="101" on="1"/>
        <pt x="512" y="81" on="0"/>
      </contour>
    </TTGlyph>
    <TTGlyph name="glyph00027" xMin="157" yMin="206" xMax="867" yMax="244">
      <component glyphName="glyph00028" x="0" y="0" flags="0x4"/>
      <component glyphName="glyph00028" x="633" y="0" flags="0x4"/>
    </TTGlyph>
    <TTGlyph name="glyph00028" xMin="157" yMin="206" xMax="234" yMax="244">
      <contour>
        <pt x="215" y="206" on="1"/>
        <pt x="223" y="206" on="0"/>
        <pt x="234" y="217" on="0"/>
        <pt x="234" y="225" on="1"/>
        <pt x="234" y="233" on="0"/>
        <pt x="223" y="244" on="0"/>
        <pt x="215" y="244" on="1"/>
        <pt x="176" y="244" on="1"/>
        <pt x="168" y="244" on="0"/>
        <pt x="157" y="233" on="0"/>
        <pt x="157" y="225" on="1"/>
        <pt x="157" y="217" on="0"/>
        <pt x="168" y="206" on="0"/>
        <pt x="176" y="206" on="1"/>
      </contour>
    </TTGlyph>
    <TTGlyph name="glyph00029" xMin="76" yMin="91" xMax="948" yMax="192">
      <contour>
        <pt x="908" y="168" on="1"/>
        <pt x="907" y="168" on="1"/>
        <pt x="708" y="158" on="0"/>
        <pt x="512" y="158" on="1"/>
        <pt x="315" y="158" on="0"/>
        <pt x="117" y="168" on="1"/>
        <pt x="116" y="168" on="1"/>
        <pt x="102" y="168" on="0"/>
        <pt x="101" y="154" on="1"/>
        <pt x="101" y="140" on="1"/>
        <pt x="100" y="134" on="0"/>
        <pt x="104" y="130" on="1"/>
        <pt x="108" y="125" on="0"/>
        <pt x="114" y="125" on="1"/>
        <pt x="313" y="115" on="0"/>
        <pt x="512" y="115" on="1"/>
        <pt x="711" y="115" on="0"/>
        <pt x="910" y="125" on="1"/>
        <pt x="916" y="125" on="0"/>
        <pt x="920" y="130" on="1"/>
        <pt x="924" y="134" on="0"/>
        <pt x="923" y="140" on="1"/>
        <pt x="923" y="154" on="1"/>
        <pt x="922" y="168" on="0"/>
      </contour>
      <contour>
        <pt x="908" y="192" on="1"/>
        <pt x="923" y="192" on="0"/>
        <pt x="946" y="171" on="0"/>
        <pt x="946" y="156" on="1"/>
        <pt x="947" y="152" on="0"/>
        <pt x="947" y="146" on="0"/>
        <pt x="947" y="142" on="1"/>
        <pt x="948" y="126" on="0"/>
        <pt x="927" y="102" on="0"/>
        <pt x="911" y="101" on="1"/>
        <pt x="710" y="91" on="0"/>
        <pt x="512" y="91" on="1"/>
        <pt x="314" y="91" on="0"/>
        <pt x="113" y="101" on="1"/>
        <pt x="97" y="102" on="0"/>
        <pt x="76" y="126" on="0"/>
        <pt x="77" y="142" on="1"/>
        <pt x="77" y="146" on="0"/>
        <pt x="77" y="152" on="0"/>
        <pt x="78" y="156" on="1"/>
        <pt x="78" y="171" on="0"/>
        <pt x="101" y="192" on="0"/>
        <pt x="116" y="192" on="1"/>
        <pt x="118" y="192" on="0"/>
        <pt x="118" y="192" on="1"/>
        <pt x="315" y="182" on="0"/>
        <pt x="512" y="182" on="1"/>
        <pt x="709" y="182" on="0"/>
        <pt x="906" y="192" on="1"/>
        <pt x="907" y="192" on="0"/>
      </contour>
    </TTGlyph>
    <TTGlyph name="u1F696" xMin="0" yMin="0" xMax="1024" yMax="1024">
      <contour>
        <pt x="1024" y="1024" on="1"/>
        <pt x="0" y="0" on="1"/>
      </contour>
    </TTGlyph>
</ttFont>
